<?xml version="1.0" encoding="UTF-8" standalone="no"?>
<!-- Created with Inkscape (http://www.inkscape.org/) -->

<svg
   xmlns:dc="http://purl.org/dc/elements/1.1/"
   xmlns:cc="http://creativecommons.org/ns#"
   xmlns:rdf="http://www.w3.org/1999/02/22-rdf-syntax-ns#"
   xmlns:svg="http://www.w3.org/2000/svg"
   xmlns="http://www.w3.org/2000/svg"
   xmlns:sodipodi="http://sodipodi.sourceforge.net/DTD/sodipodi-0.dtd"
   xmlns:inkscape="http://www.inkscape.org/namespaces/inkscape"
   width="1600px"
   height="1200px"
   id="svg3088"
   version="1.1"
   inkscape:version="0.48.4 r9939"
   sodipodi:docname="cobsd_fix.svg">
  <defs
     id="defs3090">
    <inkscape:path-effect
       effect="skeletal"
       id="path-effect3125"
       is_visible="true"
       pattern="m 219.16666,407.5 10,5 0,-10 z"
       copytype="single_stretched"
       prop_scale="1"
       scale_y_rel="false"
       spacing="0"
       normal_offset="0"
       tang_offset="0"
       prop_units="false"
       vertical_pattern="false"
       fuse_tolerance="0" />
    <inkscape:path-effect
       effect="skeletal"
       id="path-effect3121"
       is_visible="true"
       pattern="M 0,5 C 0,2.24 2.24,0 5,0 7.76,0 10,2.24 10,5 10,7.76 7.76,10 5,10 2.24,10 0,7.76 0,5 z"
       copytype="single_stretched"
       prop_scale="1"
       scale_y_rel="false"
       spacing="0"
       normal_offset="0"
       tang_offset="0"
       prop_units="false"
       vertical_pattern="false"
       fuse_tolerance="0" />
    <inkscape:path-effect
       effect="spiro"
       id="path-effect3119"
       is_visible="true" />
    <inkscape:path-effect
       effect="skeletal"
       id="path-effect3115"
       is_visible="true"
       pattern="M 0,5 C 0,2.24 2.24,0 5,0 7.76,0 10,2.24 10,5 10,7.76 7.76,10 5,10 2.24,10 0,7.76 0,5 z"
       copytype="single_stretched"
       prop_scale="1"
       scale_y_rel="false"
       spacing="0"
       normal_offset="0"
       tang_offset="0"
       prop_units="false"
       vertical_pattern="false"
       fuse_tolerance="0" />
    <inkscape:path-effect
       effect="skeletal"
       id="path-effect3109"
       is_visible="true"
       pattern="M 0,5 C 0,2.24 2.24,0 5,0 7.76,0 10,2.24 10,5 10,7.76 7.76,10 5,10 2.24,10 0,7.76 0,5 z"
       copytype="single_stretched"
       prop_scale="1"
       scale_y_rel="false"
       spacing="0"
       normal_offset="0"
       tang_offset="0"
       prop_units="false"
       vertical_pattern="false"
       fuse_tolerance="0" />
    <inkscape:path-effect
       effect="spiro"
       id="path-effect3107"
       is_visible="true" />
    <inkscape:path-effect
       effect="skeletal"
       id="path-effect3125-0"
       is_visible="true"
       pattern="m 253.84399,81.597655 10,5 0,-10 z"
       copytype="single_stretched"
       prop_scale="1"
       scale_y_rel="false"
       spacing="0"
       normal_offset="0"
       tang_offset="0"
       prop_units="false"
       vertical_pattern="false"
       fuse_tolerance="0" />
  </defs>
  <sodipodi:namedview
     id="base"
     pagecolor="#ffffff"
     bordercolor="#666666"
     borderopacity="1.0"
     inkscape:pageopacity="0.0"
     inkscape:pageshadow="2"
     inkscape:zoom="1"
     inkscape:cx="776.69489"
     inkscape:cy="611.86225"
     inkscape:current-layer="layer2"
     inkscape:document-units="px"
     showgrid="false"
     inkscape:window-width="1920"
     inkscape:window-height="1030"
     inkscape:window-x="1920"
     inkscape:window-y="0"
     inkscape:window-maximized="1" />
  <metadata
     id="metadata3093">
    <rdf:RDF>
      <cc:Work
         rdf:about="">
        <dc:format>image/svg+xml</dc:format>
        <dc:type
           rdf:resource="http://purl.org/dc/dcmitype/StillImage" />
        <dc:title></dc:title>
      </cc:Work>
    </rdf:RDF>
  </metadata>
  <g
     inkscape:groupmode="layer"
     id="layer2"
     inkscape:label="background"
     style="display:none">
    <rect
       style="fill:#ff00ff;fill-opacity:1;stroke:none"
       id="rect3001"
       width="1426.6666"
       height="903.33331"
       x="126.66666"
       y="161.66667" />
  </g>
  <g
     inkscape:groupmode="layer"
     id="layer3"
     inkscape:label="hornFill">
    <path
       style="fill:#ffffff;fill-opacity:1;stroke:none"
       d="m 559,384.125 30,-3 c 0,0 2.64437,-4.95754 0.875,-5.75 -20.65827,-9.25239 -28.90239,-12.09827 -41.75,-20.875 -8.20895,-5.60787 -15.55154,-12.5418 -22.125,-20 -6.07983,-6.89814 -15.78125,-22.625 -15.78125,-22.625 l -6.17969,-12.23828 4.01716,50.42093 z"
       id="path3022"
       inkscape:connector-curvature="0"
       sodipodi:nodetypes="ccssscccc"
       inkscape:export-filename="/home/collierz/graphics/zach/cobug/path3194.png"
       inkscape:export-xdpi="164.92999"
       inkscape:export-ydpi="164.92999" />
    <path
       style="fill:#ffffff;fill-opacity:1;stroke:none"
       d="m 962.9375,372.1875 c 0,0 -5.3125,32.25 -4.8125,32.3125 0.5,0.0625 73.875,-49.5 73.875,-49.5 l 7.9375,-46.625 -0.3082,-8.9473 c 0,0 -10.3594,22.39355 -18.0368,31.89162 -8.7049,10.7692 -19.5426,19.90232 -31.06848,27.57717 -8.49593,5.65725 -27.58652,13.29101 -27.58652,13.29101 z"
       id="path3812"
       inkscape:connector-curvature="0"
       sodipodi:nodetypes="cscccssc"
       inkscape:export-filename="/home/collierz/graphics/zach/cobug/path3194.png"
       inkscape:export-xdpi="164.92999"
       inkscape:export-ydpi="164.92999" />
  </g>
  <g
     id="layer1"
     inkscape:label="Layer 1"
     inkscape:groupmode="layer">
    <path
       inkscape:connector-curvature="0"
       id="path3362"
       d="M 1035.6062,685.2606 C 985.50131,809.12323 854.65317,880.11405 723.50036,854.59168 592.34756,829.06928 497.66963,714.19093 497.66963,580.57787 c 0,-133.61307 94.67793,-248.49141 225.83073,-274.01381 131.15281,-25.52241 262.00095,45.46845 312.10584,169.33107 L 776.69094,580.57787"
       style="fill:#bf0a30;overflow:visible"
       inkscape:export-filename="/home/collierz/graphics/zach/cobug/path3194.png"
       inkscape:export-xdpi="164.92999"
       inkscape:export-ydpi="164.92999" />
    <circle
       transform="matrix(0.6978849,0,0,0.6978849,246.29841,161.84693)"
       id="circle3364"
       r="200"
       cy="600"
       cx="760"
       sodipodi:cx="760"
       sodipodi:cy="600"
       sodipodi:rx="200"
       sodipodi:ry="200"
       style="fill:#ffd700;overflow:visible"
       inkscape:export-filename="/home/collierz/graphics/zach/cobug/path3194.png"
       inkscape:export-xdpi="164.92999"
       inkscape:export-ydpi="164.92999" />
    <path
       style="fill:#000000;fill-rule:evenodd;stroke:none"
       d="m 597.50523,366.79251 c 0,0 0,0 0,0 0,0 0,0 0,0 0,0 0,0 0,0 0,0 0,0 0,0 z"
       id="path3105"
       inkscape:path-effect="#path-effect3107;#path-effect3109"
       inkscape:original-d="m 597.50523,366.79251 c -398.33682,555.47166 -199.16841,277.73583 0,0 z"
       inkscape:connector-curvature="0"
       sodipodi:nodetypes="cc"
       inkscape:export-filename="/home/collierz/graphics/zach/cobug/path3194.png"
       inkscape:export-xdpi="164.92999"
       inkscape:export-ydpi="164.92999" />
    <path
       style="fill:#bf0a30;fill-opacity:1;fill-rule:evenodd;stroke:none"
       d="m 504.05455,299.66961 c 10.37618,23.51137 26.52972,45.01248 48.61669,58.63238 15.49464,10.153 33.01102,16.50515 50.48056,22.33209 -19.13713,6.89116 -31.65587,23.51452 -44.72316,39.33717 -12.27352,15.60077 -25.84876,28.537 -30.14005,47.81589 -1.40562,-15.26549 -1.88587,-30.70107 -5.50476,-45.65717 -5.92719,-28.32084 -8.35732,-57.19082 -12.14357,-85.83702 -1.43965,-12.26255 -5.27478,-24.3808 -6.59351,-36.65685 -11.65951,28.68897 2.0897,74.91446 7.47838,103.00027 3.10049,15.72418 6.15391,31.51116 11.31293,46.71351 1.93506,6.52508 3.73896,13.0894 5.38557,19.6933 6.89838,-22.13319 18.21706,-43.04315 34.3815,-59.79052 11.51373,-12.50576 25.9722,-22.15636 41.65909,-28.62 -19.69376,-8.57168 -40.01199,-16.36125 -57.82757,-28.56147 -18.84155,-12.96964 -32.62187,-31.94188 -42.3821,-52.40158 z"
       id="path3123-5"
       inkscape:connector-curvature="0"
       sodipodi:nodetypes="ccccccccccccccc"
       inkscape:export-filename="/home/collierz/graphics/zach/cobug/path3194.png"
       inkscape:export-xdpi="164.92999"
       inkscape:export-ydpi="164.92999" />
    <path
       style="fill:#bf0a30;fill-opacity:1;fill-rule:evenodd;stroke:none"
       d="m 1039.627,299.4338 c -10.3761,23.51137 -24.0209,45.20611 -46.10786,58.82601 -15.49464,10.153 -33.01102,16.50515 -50.48056,22.33209 19.13713,6.89116 31.65587,23.51452 44.72316,39.33717 12.27356,15.60077 25.84876,28.537 30.14006,47.81589 1.4056,-15.26549 1.8859,-30.70107 5.5048,-45.65717 5.9271,-28.32084 8.3573,-57.19082 12.1435,-85.83702 1.4397,-12.26255 2.767,-24.54486 4.0857,-36.82091 8.6022,29.7187 0.274,75.82985 -4.9705,103.16433 -3.1005,15.72418 -6.154,31.51116 -11.313,46.71351 -1.935,6.52508 -3.7389,13.0894 -5.3855,19.6933 -6.8984,-22.13319 -18.21711,-43.04315 -34.38155,-59.79052 -11.51373,-12.50576 -25.9722,-22.15636 -41.65909,-28.62 19.69376,-8.57168 40.01199,-16.36125 57.82757,-28.56147 18.84157,-12.96964 30.11307,-32.13551 39.87327,-52.59521 z"
       id="path3123-5-4"
       inkscape:connector-curvature="0"
       sodipodi:nodetypes="ccccccccccccccc"
       inkscape:export-filename="/home/collierz/graphics/zach/cobug/path3194.png"
       inkscape:export-xdpi="164.92999"
       inkscape:export-ydpi="164.92999" />
    <path
       style="fill:#bf0a30;fill-opacity:1"
       d="m 525.37131,456.72389 c -0.0392,-4.74727 -2.00075,-17.80532 -5.03729,-33.53426 -3.25436,-16.85717 -5.26813,-30.02543 -8.67866,-56.75069 -2.78771,-21.84469 -6.04598,-48.86114 -6.01972,-49.91325 0.008,-0.34312 1.09699,1.24022 2.4187,3.51853 10.62437,18.31383 24.33626,32.78231 41.29349,43.57199 9.1155,5.80008 24.41283,13.39166 32.5914,16.17408 2.48306,0.84476 4.51465,1.74354 4.51465,1.99732 0,0.25376 -2.95916,3.24198 -6.57591,6.64047 -19.05852,17.90842 -35.73085,39.07087 -49.23636,62.49647 -5.12498,8.88938 -5.24367,9.01999 -5.2703,5.79934 l 0,0 z"
       id="path3192"
       inkscape:connector-curvature="0"
       inkscape:export-filename="/home/collierz/graphics/zach/cobug/path3194.png"
       inkscape:export-xdpi="164.92999"
       inkscape:export-ydpi="164.92999" />
    <path
       style="fill:#bf0a30;fill-opacity:1"
       d="m 1039.6357,303.96095 -4.8191,9.85815 c -15.2748,34.14016 -33.7766,55.98234 -61.75624,73.00532 l -8.15411,4.94952 12.38918,17.15262 c 16.63714,25.109 27.49517,44.42056 38.42637,70.60347 7.0721,-50.03188 15.9551,-90.87817 19.3793,-130.33897 1.6435,-19.08693 3.2034,-37.03602 3.4766,-39.85213 z"
       id="path3194"
       inkscape:connector-curvature="0"
       sodipodi:nodetypes="ccccccccc"
       inkscape:export-xdpi="164.92999"
       inkscape:export-ydpi="164.92999" />
  </g>
</svg>
